<?xml version="1.0" encoding="utf-8"?>
<!-- Generator: Adobe Illustrator 22.0.1, SVG Export Plug-In . SVG Version: 6.00 Build 0)  -->
<svg version="1.1" id="Layer_1" xmlns="http://www.w3.org/2000/svg" xmlns:xlink="http://www.w3.org/1999/xlink" x="0px" y="0px"
	 viewBox="0 0 1651 560" style="enable-background:new 0 0 1651 560;" xml:space="preserve">
<style type="text/css">
	.st0{fill:#7A7A7A;}
	.st1{opacity:0.3;enable-background:new    ;}
	.st2{fill:none;stroke:#FFFFFF;stroke-width:6;stroke-miterlimit:10;}
	.st3{fill:#47535B;}
	.st4{fill:#47535B;stroke:#FFFFFF;stroke-width:6;stroke-miterlimit:10;}
	.st5{fill:#FFFFFF;}
</style>
<title>abbatykori-logo</title>
<g>
	<g id="Layer_1_1_">
		<path class="st0" d="M111.9,444.2c-9.4,3.9-13.3-0.4-8.8-9.5l125-309.8c4.6-9.1,12-9.1,16.5,0l155,309.8c4.5,9.1,0.6,13.3-8.8,9.5
			l-137.4-56.9c-9.4-3.9-24.8-3.9-34.1,0L111.9,444.2z"/>
		<path class="st1" d="M236.4,118.1c3,0,6,2.3,8.3,6.8l155,309.8c4.5,9.1,0.6,13.3-8.8,9.5l-137.4-56.9c-5.5-2-11.2-3-17.1-2.9"/>
		<path class="st2" d="M111.9,444.2c-9.4,3.9-13.3-0.4-8.8-9.5l125-309.8c4.6-9.1,12-9.1,16.5,0l155,309.8c4.5,9.1,0.6,13.3-8.8,9.5
			l-137.4-56.9c-9.4-3.9-24.8-3.9-34.1,0L111.9,444.2z"/>
		<path class="st3" d="M406.8,124.5c0-10.2-6.3-13.1-14.1-6.6L249.8,267.3c-7.2,5.8-8.3,16.3-2.5,23.4c0.4,0.5,0.9,1,1.4,1.5
			l145.1,145.4c7.2,7.2,13,4.8,13-5.4l-78.2-150.3L406.8,124.5z"/>
		<path class="st4" d="M406.8,124.5c0-10.2-6.3-13.1-14.1-6.6L249.8,267.3c-7.2,5.8-8.3,16.3-2.5,23.4c0.4,0.5,0.9,1,1.4,1.5
			l145.1,145.4c7.2,7.2,13,4.8,13-5.4l-78.2-150.3L406.8,124.5z"/>
		<path class="st0" d="M633.5,336.1l-14.5-31.8h-65.1l-14.4,31.8h-7.9l50.9-112.3h7.5l51.4,112.3H633.5z M615.7,297.1l-29.5-64.7
			L557,297L615.7,297.1z"/>
		<path class="st0" d="M589.8,224L641,335.8h-7.4L619.1,304h-65.4l-14.4,31.8H532L582.7,224H589.8 M556.6,297.2h59.5l-29.9-65.6
			L556.6,297.2 M590.2,223.5h-7.8l-0.1,0.3l-50.7,111.8l-0.3,0.7h8.5l0.1-0.3l14.2-31.5h64.8l14.4,31.5l0.1,0.3h8.5l-0.3-0.7
			l-51.2-111.8L590.2,223.5L590.2,223.5z M557.4,296.7l28.8-63.9l29.1,63.9H557.4z"/>
		<path class="st0" d="M661.2,336.1V223.8h46c22,0,35.1,10.4,35.1,27.9c0,13.5-7.4,22.8-20.4,25.7c16.3,2.5,26,13,26,28.4
			c0,19.3-14.7,30.3-40.4,30.3L661.2,336.1z M707,329c21.4,0,33.7-8.8,33.7-24.1c0-14.9-12.3-23.4-33.7-23.4h-38.6V329H707z
			 M707,274.5c17.8,0,28-8,28-22c0-13.8-10.2-21.7-28-21.7h-38.6v43.6L707,274.5z"/>
		<path class="st0" d="M707.2,224c21.9,0,34.9,10.2,34.9,27.7c0,13.8-7.8,23.2-21.6,25.7c17.1,2.1,27.2,12.6,27.2,28.3
			c0,19-14.7,30.1-40.1,30.1h-46V224H707.2 M668.2,274.7h38.9c17.9,0,28.3-8,28.3-22.2c0-13.9-10.4-21.9-28.3-21.9h-38.9
			L668.2,274.7 M668.2,329.2h38.9c21.6,0,33.9-8.8,33.9-24.3c0-15-12.3-23.7-33.9-23.7h-38.9V329.2 M707.2,223.5H661v112.8h46.5
			c12.8,0,22.8-2.7,29.9-8s10.7-13.1,10.7-22.6c0-15.1-9.3-25.6-25-28.4c12.3-3.3,19.4-12.5,19.4-25.6
			C742.5,234.1,729.3,223.5,707.2,223.5L707.2,223.5z M668.7,231.1H707c17.7,0,27.8,7.8,27.8,21.4c0,13.8-10.1,21.7-27.8,21.7h-38.3
			L668.7,231.1L668.7,231.1z M668.7,281.8H707c21.2,0,33.4,8.4,33.4,23.2c0,15.1-12.2,23.8-33.4,23.8h-38.3L668.7,281.8L668.7,281.8
			z"/>
		<path class="st0" d="M777.2,336.1V223.8h46c22,0,35.1,10.4,35.1,27.9c0,13.5-7.4,22.8-20.4,25.7c16.3,2.5,26,13,26,28.4
			c0,19.3-14.7,30.3-40.4,30.3L777.2,336.1z M823,329c21.4,0,33.7-8.8,33.7-24.1c0-14.9-12.3-23.4-33.7-23.4h-38.6V329H823z
			 M823,274.5c17.8,0,28-8,28-22c0-13.8-10.2-21.7-28-21.7h-38.6v43.6L823,274.5z"/>
		<path class="st0" d="M823.2,224c21.9,0,34.8,10.3,34.8,27.7c0,13.8-7.8,23.2-21.6,25.7c17.1,2.1,27.2,12.6,27.2,28.3
			c0,19-14.7,30.1-40.1,30.1h-46V224H823.2 M784.1,274.7H823c17.9,0,28.3-8,28.3-22.2c0-13.9-10.4-21.9-28.3-21.9h-38.9L784.1,274.7
			 M784.1,329.2H823c21.6,0,33.9-8.8,33.9-24.3c0-15-12.3-23.7-33.9-23.7h-38.9V329.2 M823.1,223.5h-46.2v112.8h46.5
			c12.8,0,22.8-2.7,29.9-8s10.7-13.1,10.7-22.6c0-15.1-9.3-25.6-25-28.4c12.3-3.3,19.4-12.5,19.4-25.6
			C858.5,234.1,845.2,223.5,823.1,223.5L823.1,223.5z M784.6,231.1H823c17.7,0,27.8,7.8,27.8,21.4c0,13.8-10.1,21.7-27.8,21.7h-38.4
			L784.6,231.1L784.6,231.1z M784.6,281.8H823c21.2,0,33.4,8.4,33.4,23.2c0,15.1-12.2,23.8-33.4,23.8h-38.4L784.6,281.8L784.6,281.8
			z"/>
		<path class="st0" d="M977,336.1l-14.5-31.8h-65.1L883,336.1h-7.9L926,223.8h7.5L984.9,336L977,336.1z M959.2,297.1l-29.5-64.7
			L900.5,297L959.2,297.1z"/>
		<path class="st0" d="M933.3,224l51.2,111.8h-7.4L962.6,304h-65.4l-14.4,31.8h-7.4L926.1,224H933.3 M900.1,297.2h59.5l-29.9-65.6
			L900.1,297.2 M933.6,223.5h-7.8l-0.1,0.3L875,335.6l-0.3,0.7h8.5l0.1-0.3l14.3-31.5h64.8l14.4,31.5l0.1,0.3h8.5l-0.3-0.7
			l-51.2-111.8L933.6,223.5L933.6,223.5z M900.8,296.7l28.8-63.9l29.1,63.9H900.8z"/>
		<polygon class="st0" points="1015.3,336.1 1015.3,230.8 977.5,230.8 977.5,223.8 1060.2,223.8 1060.2,230.8 1022.5,230.8 
			1022.5,336.1 		"/>
		<path class="st0" d="M1060,224v6.6h-37.7v105.3h-6.7V230.6h-37.8V224H1060 M1060.5,223.5h-83.2v7.6h37.7v105.3h7.7V231.1h37.7
			L1060.5,223.5L1060.5,223.5z"/>
		<polygon class="st0" points="1107.7,336.1 1107.7,295.3 1062.7,223.8 1070.5,223.8 1111.1,286.4 1151.3,223.8 1159.1,223.8 
			1114.8,294.9 1114.8,336.1 		"/>
		<path class="st0" d="M1158.6,224l-44.1,70.8v40.9h-6.6v-40.6l-44.8-71.2h7.2l40.8,62.8l40.3-62.8H1158.6 M1159.5,223.5h-8.4
			l-0.2,0.2l-39.9,62.3l-40.3-62.2l-0.2-0.2h-8.4l0.5,0.8l44.7,71v41h7.6V295l44.1-70.7L1159.5,223.5L1159.5,223.5z"/>
		<polygon class="st3" points="1249.2,336.1 1212.5,286.8 1193.7,307.4 1193.7,336.1 1174.4,336.1 1174.4,223.6 1193.7,223.6 
			1193.7,281.1 1246.8,223.6 1269.7,223.6 1226.1,271.7 1272.5,336.1 		"/>
		<path class="st5" d="M1269.1,223.9l-43.3,47.8l46.2,64.1h-22.7l-36.8-49.4l-19,21v28.5h-18.9V223.9h18.9v57.9l53.4-57.9H1269.1
			 M1270.3,223.4h-23.6l-0.2,0.2l-52.6,57v-57.1h-19.9v112.9h19.9v-28.8l18.5-20.4l36.4,48.9l0.2,0.2h23.9l-0.6-0.8l-46-63.8
			l43.1-47.5L1270.3,223.4L1270.3,223.4z"/>
		<path class="st3" d="M1335.8,336.9c-33.4,0-59.6-25-59.6-57c-0.1-15.3,6.1-29.9,17.2-40.5c11.1-10.5,26.1-16.2,42.4-16.2
			s31.3,5.8,42.4,16.3c11.1,10.5,17.3,25.1,17.2,40.4C1395.4,311.8,1369.2,336.9,1335.8,336.9z M1336,240.6c-22.1,0-40,17.6-40,39.3
			c0,21.8,18,39.6,40,39.6c21.8,0,39.5-17.7,39.6-39.6C1375.5,257.8,1358.2,240.6,1336,240.6L1336,240.6z"/>
		<path class="st5" d="M1335.8,223.4c33.4,0,59.3,24.5,59.3,56.4s-25.9,56.8-59.3,56.8s-59.3-24.8-59.3-56.8
			C1276.5,247.7,1302.4,223.4,1335.8,223.4 M1336,319.7c21.9,0.3,39.9-17.1,40.3-39s-17.1-39.9-39-40.3c-0.4,0-0.8,0-1.3,0
			c-22.1,0-40.3,17.3-40.3,39.5S1314.1,319.7,1336,319.7 M1335.8,222.9c-16.3,0-31.4,5.8-42.5,16.3c-22.5,21.7-23.1,57.5-1.4,79.9
			c0.5,0.5,0.9,1,1.4,1.4c11.1,10.7,26.3,16.5,42.5,16.5s31.4-5.9,42.5-16.5c22.5-21.6,23.1-57.4,1.5-79.8c-0.5-0.5-1-1-1.5-1.5
			C1367.2,228.7,1352.1,222.9,1335.8,222.9z M1336,319.2c-21.9,0-39.8-17.6-39.8-39.3c0-21.5,17.8-39,39.8-39s39.3,17.1,39.3,39
			C1375.3,301.5,1357.7,319.1,1336,319.2L1336,319.2z"/>
		<path class="st3" d="M1486.1,336.1l-20.5-33.9c-1.6,0.1-3.3,0.1-5,0.1h-26.3v33.7H1415V223.6h45.7c28.8,0,45.3,14,45.3,38.5
			c0,17.6-8.2,30.5-23.1,36.4l25.2,37.5L1486.1,336.1z M1460.7,284.9c17.6,0,26.9-7.7,26.9-22.3c0-14.1-9.3-21.5-26.9-21.5h-26.3
			v43.8L1460.7,284.9z"/>
		<path class="st5" d="M1460.7,223.9c28.6,0,45.1,13.9,45.1,38.2c0,17.9-8.3,30.5-23.2,36.3l25.1,37.4h-21.4l-20.5-33.9
			c-1.6,0.2-3.4,0.2-5.1,0.2h-26.5v33.7h-18.9V223.9H1460.7 M1434.1,285.1h26.5c17.3,0,27.2-7.4,27.2-22.5
			c0-14.7-9.9-21.8-27.2-21.8h-26.5V285.1 M1460.7,223.4h-45.9v112.9h19.9v-33.7h26c1.6,0,3.3,0,4.8-0.1l20.3,33.6l0.2,0.2h22.7
			l-0.5-0.8l-24.8-36.9c14.8-6,22.9-18.9,22.9-36.5C1506.2,237.5,1489.6,223.4,1460.7,223.4L1460.7,223.4z M1434.7,241.3h26
			c17.5,0,26.7,7.4,26.7,21.3c0,14.4-9.2,22-26.7,22h-26V241.3L1434.7,241.3z"/>
		<rect x="1530.7" y="223.6" class="st3" width="19.4" height="112.4"/>
		<path class="st5" d="M1549.8,223.9v111.9h-18.9V223.9H1549.8 M1550.3,223.4h-19.9v112.9h19.9V223.4z"/>
	</g>
</g>
</svg>
